<svg xmlns="http://www.w3.org/2000/svg" xmlns:xlink="http://www.w3.org/1999/xlink" viewBox="0 0 68.39 83.68"><defs><style>.a{fill:url(#a);}.b{fill:url(#b);}.c{fill:url(#c);}</style><linearGradient id="a" x1="619.82" y1="666.09" x2="619.82" y2="582" gradientTransform="matrix(1, 0, 0, -1, 0, 1080)" gradientUnits="userSpaceOnUse"><stop offset="0" stop-color="#0ac4fb"/><stop offset="0.08" stop-color="#0ec1f9"/><stop offset="0.15" stop-color="#19b8f5"/><stop offset="0.23" stop-color="#2ca9ed"/><stop offset="0.3" stop-color="#4793e2"/><stop offset="0.37" stop-color="#6978d4"/><stop offset="0.44" stop-color="#9456c2"/><stop offset="0.51" stop-color="#c52eae"/><stop offset="0.58" stop-color="#fe0197"/><stop offset="0.58" stop-color="#ff0096"/><stop offset="1" stop-color="#ff0096"/></linearGradient><linearGradient id="b" x1="652.84" y1="665" x2="652.84" y2="582" xlink:href="#a"/><linearGradient id="c" x1="643.01" y1="665" x2="643.01" y2="582" xlink:href="#a"/></defs><title>knish-icon</title><path class="a" d="M623.66,430.79c-1.86,6.15-4.31,12.12-6.47,18.18a10.79,10.79,0,0,0-.73,2.88c-.12,2,0,4-.08,6a65.66,65.66,0,0,1-4.61,22.44,62.72,62.72,0,0,1-8.09,14.79c-.52.7-.92,1.48-1.38,2.23l.28.3a7.12,7.12,0,0,0,1.24-.16c1.14-.36,2.29-.71,3.4-1.16,9.36-3.81,17-9.64,21.85-18.71a61.81,61.81,0,0,0,5.19-13.25,77,77,0,0,0,3.08-19.26,51.7,51.7,0,0,0-4.92-22.32c-1.21-2.63-3.19-6.25-4.53-8.82l-.41.09-.28,1.24C626,420.44,625.19,425.72,623.66,430.79Z" transform="translate(-602.3 -413.91)"/><path class="b" d="M670.34,441.49q-4.05-7.22-8.13-14.4a13,13,0,0,0-1.39-1.59c-3.42,17.85-13.55,31.24-25.84,43.37a8.59,8.59,0,0,0,2.34-.67c3.61-1.72,7.28-3.34,10.77-5.26,8.37-4.61,15.36-10.9,21.61-18.07C670.58,443.86,671.07,442.79,670.34,441.49Z" transform="translate(-602.3 -413.91)"/><path class="c" d="M633.86,472.93a2.22,2.22,0,0,0-.27.45,6,6,0,0,0-.14.95A30.83,30.83,0,0,0,638.54,493a2.17,2.17,0,0,0,2.21,1.11c2.94-.33,5.88-.65,8.81-1,1-.13,2-.38,3-.58,0-.12,0-.24,0-.36C644,488.09,637.93,481.53,633.86,472.93Z" transform="translate(-602.3 -413.91)"/></svg>