<svg xmlns="http://www.w3.org/2000/svg" xmlns:xlink="http://www.w3.org/1999/xlink" viewBox="0 0 280.71 83.68"><defs><style>.a{fill:#0cf900;}.b{fill:url(#a);}.c{fill:url(#b);}.d{fill:url(#c);}.e{fill:url(#d);}.f{fill:url(#e);}.g{fill:url(#f);}.h{fill:url(#g);}.i{fill:url(#h);}.j{fill:url(#i);}.k{fill:url(#j);}.l{fill:url(#k);}.m{fill:url(#l);}.n{fill:url(#m);}.o{fill:url(#n);}.p{fill:url(#o);}.q{fill:url(#p);}.r{fill:#ff7800;}</style><linearGradient id="a" x1="17.52" x2="17.52" y2="83.68" gradientUnits="userSpaceOnUse"><stop offset="0.58" stop-color="#ff0096"/><stop offset="1" stop-color="#ff0096"/></linearGradient><linearGradient id="b" x1="17.52" y1="1.09" x2="17.52" y2="84.09" gradientUnits="userSpaceOnUse"><stop offset="0" stop-color="#0cf900"/><stop offset="0.14" stop-color="#10f700"/><stop offset="0.27" stop-color="#1bf100"/><stop offset="0.39" stop-color="#2ee700"/><stop offset="0.52" stop-color="#49d900"/><stop offset="0.64" stop-color="#6bc600"/><stop offset="0.76" stop-color="#96b000"/><stop offset="0.88" stop-color="#c79600"/><stop offset="1" stop-color="#ff7800"/></linearGradient><linearGradient id="c" x1="185.82" y1="16.67" x2="185.82" y2="78.96" xlink:href="#a"/><linearGradient id="d" x1="185.82" y1="1.09" x2="185.82" y2="84.09" xlink:href="#b"/><linearGradient id="e" x1="83.77" y1="33.87" x2="83.77" y2="78.99" xlink:href="#a"/><linearGradient id="f" x1="83.77" y1="1.09" x2="83.77" y2="84.09" xlink:href="#b"/><linearGradient id="g" x1="50.54" y1="11.6" x2="50.54" y2="54.96" xlink:href="#a"/><linearGradient id="h" x1="50.54" y1="1.09" x2="50.54" y2="84.09" xlink:href="#b"/><linearGradient id="i" x1="143.79" y1="33.88" x2="143.79" y2="78.99" xlink:href="#a"/><linearGradient id="j" x1="143.79" y1="1.09" x2="143.79" y2="84.09" xlink:href="#b"/><linearGradient id="k" x1="115.44" y1="33.73" x2="115.44" y2="78.97" xlink:href="#a"/><linearGradient id="l" x1="115.44" y1="1.09" x2="115.44" y2="84.09" xlink:href="#b"/><linearGradient id="m" x1="40.7" y1="59.02" x2="40.7" y2="80.2" xlink:href="#a"/><linearGradient id="n" x1="40.7" y1="1.62" x2="40.7" y2="82.79" xlink:href="#b"/><linearGradient id="o" x1="115.43" y1="16.86" x2="115.43" y2="27.17" xlink:href="#a"/><linearGradient id="p" x1="115.43" y1="1.09" x2="115.43" y2="84.09" xlink:href="#b"/></defs><title>Asset 3</title><path class="a" d="M25.6,0l-.41.09c-.08.33-.15.67-.23,1h1.21Z"/><path class="b" d="M21.36,16.89C19.5,23,17.06,29,14.89,35.06a10.89,10.89,0,0,0-.73,2.88c-.12,2,0,4-.08,6A65.42,65.42,0,0,1,9.47,66.36,63.09,63.09,0,0,1,1.38,81.15c-.52.7-.92,1.49-1.38,2.23l.28.3a6.28,6.28,0,0,0,1.24-.16c1.15-.35,2.3-.71,3.41-1.16,9.35-3.81,17-9.64,21.84-18.71A61.81,61.81,0,0,0,32,50.4,77,77,0,0,0,35,31.15,51.67,51.67,0,0,0,30.12,8.83c-1.21-2.63-2.6-5.17-3.95-7.74H25l-.06.25C23.75,6.53,22.9,11.81,21.36,16.89Z"/><path class="c" d="M21.36,16.89C19.5,23,17.06,29,14.89,35.06a10.89,10.89,0,0,0-.73,2.88c-.12,2,0,4-.08,6A65.42,65.42,0,0,1,9.47,66.36,63.09,63.09,0,0,1,1.38,81.15c-.52.7-.92,1.49-1.38,2.23l.28.3a6.28,6.28,0,0,0,1.24-.16c1.15-.35,2.3-.71,3.41-1.16,9.35-3.81,17-9.64,21.84-18.71A61.81,61.81,0,0,0,32,50.4,77,77,0,0,0,35,31.15,51.67,51.67,0,0,0,30.12,8.83c-1.21-2.63-2.6-5.17-3.95-7.74H25l-.06.25C23.75,6.53,22.9,11.81,21.36,16.89Z"/><path class="d" d="M191.15,34c-2.91-.14-5.84-.12-8.75,0a8.65,8.65,0,0,0-7.29,3.75,6.59,6.59,0,0,0-.33.65l-.55-.2c-.06-.56-.15-1.12-.16-1.69,0-5.91,0-11.83,0-17.75,0-1.82-.27-2.07-2.1-2.06h-.72a1.2,1.2,0,0,0-1.3,1.38c0,.68.08,1.35.08,2q0,27.72,0,55.44c0,.68-.07,1.35-.08,2a1.2,1.2,0,0,0,1.3,1.38h1.31a1.29,1.29,0,0,0,1.5-1.45c0-.52,0-1,0-1.56,0-9.84,0-19.68,0-29.52,0-4.85,2.54-8.1,7.12-8.58a56.11,56.11,0,0,1,10,0,6.2,6.2,0,0,1,5.57,4.33,14.62,14.62,0,0,1,.81,4.68c.08,10.08,0,20.16,0,30.24,0,1.62.32,1.87,2,1.88s2-.2,2-1.77c0-10.76.05-21.52,0-32.28A10.71,10.71,0,0,0,191.15,34Z"/><path class="e" d="M191.15,34c-2.91-.14-5.84-.12-8.75,0a8.65,8.65,0,0,0-7.29,3.75,6.59,6.59,0,0,0-.33.65l-.55-.2c-.06-.56-.15-1.12-.16-1.69,0-5.91,0-11.83,0-17.75,0-1.82-.27-2.07-2.1-2.06h-.72a1.2,1.2,0,0,0-1.3,1.38c0,.68.08,1.35.08,2q0,27.72,0,55.44c0,.68-.07,1.35-.08,2a1.2,1.2,0,0,0,1.3,1.38h1.31a1.29,1.29,0,0,0,1.5-1.45c0-.52,0-1,0-1.56,0-9.84,0-19.68,0-29.52,0-4.85,2.54-8.1,7.12-8.58a56.11,56.11,0,0,1,10,0,6.2,6.2,0,0,1,5.57,4.33,14.62,14.62,0,0,1,.81,4.68c.08,10.08,0,20.16,0,30.24,0,1.62.32,1.87,2,1.88s2-.2,2-1.77c0-10.76.05-21.52,0-32.28A10.71,10.71,0,0,0,191.15,34Z"/><path class="f" d="M99.66,45.17C99.54,38.84,95.22,34.24,89.12,34c-3-.13-5.92-.13-8.87,0a8.68,8.68,0,0,0-7.12,3.61,7.48,7.48,0,0,1-.94.87c-.06-1.14-.11-2-.13-2.76-.06-1.57-.31-1.79-2.12-1.79s-2.09.22-2.1,1.81q0,20.69,0,41.38c0,1.55.31,1.83,1.82,1.85a2.6,2.6,0,0,0,1.19,0A2.79,2.79,0,0,0,72,77.77a3.92,3.92,0,0,0,.08-1.54q0-15.06,0-30.11c0-4.6,2.62-7.82,7.16-8.29a51.64,51.64,0,0,1,9.79,0c3.43.27,5.78,2.79,6.34,6.24a21.16,21.16,0,0,1,.28,3.46q0,14.46,0,28.91a9.91,9.91,0,0,0,0,1.44c0,.29.21.79.37.81a8.94,8.94,0,0,0,2.91.1c.34-.07.68-1.09.68-1.68,0-5.88,0-11.76,0-17.63C99.69,54.69,99.75,49.93,99.66,45.17Z"/><path class="g" d="M99.66,45.17C99.54,38.84,95.22,34.24,89.12,34c-3-.13-5.92-.13-8.87,0a8.68,8.68,0,0,0-7.12,3.61,7.48,7.48,0,0,1-.94.87c-.06-1.14-.11-2-.13-2.76-.06-1.57-.31-1.79-2.12-1.79s-2.09.22-2.1,1.81q0,20.69,0,41.38c0,1.55.31,1.83,1.82,1.85a2.6,2.6,0,0,0,1.19,0A2.79,2.79,0,0,0,72,77.77a3.92,3.92,0,0,0,.08-1.54q0-15.06,0-30.11c0-4.6,2.62-7.82,7.16-8.29a51.64,51.64,0,0,1,9.79,0c3.43.27,5.78,2.79,6.34,6.24a21.16,21.16,0,0,1,.28,3.46q0,14.46,0,28.91a9.91,9.91,0,0,0,0,1.44c0,.29.21.79.37.81a8.94,8.94,0,0,0,2.91.1c.34-.07.68-1.09.68-1.68,0-5.88,0-11.76,0-17.63C99.69,54.69,99.75,49.93,99.66,45.17Z"/><path class="h" d="M68.05,27.59Q64,20.38,59.92,13.18a11.59,11.59,0,0,0-1.39-1.58C55.11,29.44,45,42.83,32.69,55A8.52,8.52,0,0,0,35,54.29C38.63,52.57,42.3,51,45.79,49,54.16,44.42,61.16,38.13,67.41,31,68.29,30,68.77,28.88,68.05,27.59Z"/><path class="i" d="M68.05,27.59Q64,20.38,59.92,13.18a11.59,11.59,0,0,0-1.39-1.58C55.11,29.44,45,42.83,32.69,55A8.52,8.52,0,0,0,35,54.29C38.63,52.57,42.3,51,45.79,49,54.16,44.42,61.16,38.13,67.41,31,68.29,30,68.77,28.88,68.05,27.59Z"/><path class="j" d="M151.38,56.2c-4.08-1.54-8.11-3.2-12.16-4.8-4.64-1.83-5.56-3.23-5.49-8.2a4.92,4.92,0,0,1,3.14-4.82,13,13,0,0,1,4.42-.88c4.35-.12,8.72-.06,13.07,0,1.19,0,1.51-.64,1.49-1.68,0-1.43-.24-1.84-1.42-1.84-5.2,0-10.41-.14-15.6.06s-8.28,2.62-9.05,7a22.83,22.83,0,0,0,.09,6.65,6.49,6.49,0,0,0,3.28,4.8,33.33,33.33,0,0,0,4.66,2.44c3.7,1.52,7.46,2.87,11.18,4.35a7,7,0,0,1,4.74,6.59c.06,1.08,0,2.16,0,3.24,0,3.06-1.43,5-4.42,5.74a23.61,23.61,0,0,1-5.1.59c-4.2.08-8.4,0-12.6,0-1.53,0-1.85.32-1.86,1.68s.37,1.84,1.85,1.85c2.56,0,5.12,0,7.68,0,2.32,0,4.64.09,7,0a28.6,28.6,0,0,0,5.21-.68,7.89,7.89,0,0,0,6.43-7.31,36.4,36.4,0,0,0-.11-6.68C157.39,60.26,155.15,57.63,151.38,56.2Z"/><path class="k" d="M151.38,56.2c-4.08-1.54-8.11-3.2-12.16-4.8-4.64-1.83-5.56-3.23-5.49-8.2a4.92,4.92,0,0,1,3.14-4.82,13,13,0,0,1,4.42-.88c4.35-.12,8.72-.06,13.07,0,1.19,0,1.51-.64,1.49-1.68,0-1.43-.24-1.84-1.42-1.84-5.2,0-10.41-.14-15.6.06s-8.28,2.62-9.05,7a22.83,22.83,0,0,0,.09,6.65,6.49,6.49,0,0,0,3.28,4.8,33.33,33.33,0,0,0,4.66,2.44c3.7,1.52,7.46,2.87,11.18,4.35a7,7,0,0,1,4.74,6.59c.06,1.08,0,2.16,0,3.24,0,3.06-1.43,5-4.42,5.74a23.61,23.61,0,0,1-5.1.59c-4.2.08-8.4,0-12.6,0-1.53,0-1.85.32-1.86,1.68s.37,1.84,1.85,1.85c2.56,0,5.12,0,7.68,0,2.32,0,4.64.09,7,0a28.6,28.6,0,0,0,5.21-.68,7.89,7.89,0,0,0,6.43-7.31,36.4,36.4,0,0,0-.11-6.68C157.39,60.26,155.15,57.63,151.38,56.2Z"/><path class="l" d="M117.4,35a1.55,1.55,0,0,0-.59-.95,2.15,2.15,0,0,0-3.39,2q0,10.2,0,20.39V76.71c0,2.14.18,2.3,2.35,2.25l.48,0a1.1,1.1,0,0,0,1.19-1.2q0-.66,0-1.32V36.47A6.19,6.19,0,0,0,117.4,35Z"/><path class="m" d="M117.4,35a1.55,1.55,0,0,0-.59-.95,2.15,2.15,0,0,0-3.39,2q0,10.2,0,20.39V76.71c0,2.14.18,2.3,2.35,2.25l.48,0a1.1,1.1,0,0,0,1.19-1.2q0-.66,0-1.32V36.47A6.19,6.19,0,0,0,117.4,35Z"/><path class="n" d="M31.56,59c-.16.26-.25.35-.27.46a5.92,5.92,0,0,0-.14.94,30.76,30.76,0,0,0,5.09,18.65,2.15,2.15,0,0,0,2.2,1.11c2.94-.33,5.88-.65,8.81-1,1-.13,2-.38,3-.58l0-.36C41.69,74.18,35.64,67.63,31.56,59Z"/><path class="o" d="M31.56,59c-.16.26-.25.35-.27.46a5.92,5.92,0,0,0-.14.94,30.76,30.76,0,0,0,5.09,18.65,2.15,2.15,0,0,0,2.2,1.11c2.94-.33,5.88-.65,8.81-1,1-.13,2-.38,3-.58l0-.36C41.69,74.18,35.64,67.63,31.56,59Z"/><path class="p" d="M113.41,25.07a1.93,1.93,0,0,0,0,.24c0,1.58.24,1.81,1.8,1.83.36,0,.8.11,1.06-.06.45-.28,1.09-.72,1.1-1.12.1-2.63.1-5.27,0-7.9,0-.39-.64-.89-1.1-1.11a3.91,3.91,0,0,0-1.42-.05c-1,0-1.46.47-1.44,1.46,0,1.2,0,2.4,0,3.59h0Z"/><path class="q" d="M113.41,25.07a1.93,1.93,0,0,0,0,.24c0,1.58.24,1.81,1.8,1.83.36,0,.8.11,1.06-.06.45-.28,1.09-.72,1.1-1.12.1-2.63.1-5.27,0-7.9,0-.39-.64-.89-1.1-1.11a3.91,3.91,0,0,0-1.42-.05c-1,0-1.46.47-1.44,1.46,0,1.2,0,2.4,0,3.59h0Z"/><path class="r" d="M280.71,64.5c-.75.86-1.5,1.72-2.24,2.59l-9.25,10.82c-.69.81-.48.68-1.5.69H266c-.1-.28.09-.38.2-.51l3.33-3.91,11.16-13.06.06,0Z"/><path class="r" d="M280.71,48.32a.93.93,0,0,0-.22.14l-8.23,9.63c-.14.17-.3.33-.44.48-.17-.1-.13-.22-.13-.33,0-.75,0-1.51,0-2.26a1.52,1.52,0,0,1,.41-1.11c1.16-1.32,2.29-2.67,3.43-4l4.76-5.58c.15-.17.29-.35.43-.53Z"/><path class="r" d="M280.71,56.41a.71.71,0,0,0-.17.11q-4.19,4.89-8.36,9.8c-.11.13-.25.24-.44.43a2.93,2.93,0,0,1-.05-.41c0-.77,0-1.55,0-2.33a1.34,1.34,0,0,1,.34-.93c1-1.13,2-2.28,3-3.43l5.16-6c.2-.24.38-.51.58-.76Z"/><path class="r" d="M227.11,55.38q0-10.52,0-21c0-.32,0-.64,0-1a1.07,1.07,0,0,1,1-1.06,3.85,3.85,0,0,1,.48,0h5.89a3.85,3.85,0,0,1,.48,0,1,1,0,0,1,.95.76,2.52,2.52,0,0,1,.11.61c0,.22,0,.45,0,.68V77.2c0,1-.45,1.38-1.4,1.39-1.3,0-2.61,0-3.91,0h-2a5,5,0,0,1-.55,0,1.09,1.09,0,0,1-1.05-1.07c0-.31,0-.63,0-1Q227.11,66,227.11,55.38Z"/><path class="r" d="M271.5,42.55c-.08-.18-.15-.37-.22-.56a2.81,2.81,0,0,0-1.69-1.6,5.57,5.57,0,0,0-1.81-.33q-3,0-6,0a6.17,6.17,0,0,0-1.35.18,2.92,2.92,0,0,0-2.34,2.48,8.7,8.7,0,0,0-.16,1.77q0,6.61,0,13.22c0,1.12.12.78-.62,1.64q-3.75,4.41-7.52,8.81a3.65,3.65,0,0,1-.7.73,3.59,3.59,0,0,1-.11-.5c0-.48,0-1,0-1.44,0-7.68,0-15.35,0-23a14.61,14.61,0,0,1,.7-4.78,9.33,9.33,0,0,1,5.84-6,12.32,12.32,0,0,1,4.15-.79c2.28,0,4.57,0,6.85,0,1.19,0,2.38,0,3.56,0a12.57,12.57,0,0,1,4.72,1.05,9.45,9.45,0,0,1,2.43,1.52c.17.15.32.31.48.47a1.6,1.6,0,0,1-.46.71l-4.27,5c-.36.41-.72.83-1.07,1.25-.07.08-.12.19-.19.28Z"/><path class="r" d="M216.53,73.59c0,1.34,0,2.69,0,4,0,1-.32,1-1,1h-1.85a2.58,2.58,0,0,1-.48,0,.49.49,0,0,1-.45-.45,5.07,5.07,0,0,1,0-.68V69.63a4.87,4.87,0,0,1,0-.54.58.58,0,0,1,.52-.55,1.23,1.23,0,0,1,.27,0h2.26a1.23,1.23,0,0,1,.27,0,.53.53,0,0,1,.45.46c0,.2,0,.41,0,.61v4Z"/><path class="r" d="M231.75,21.06h3.55c.78,0,.91.14.92.92,0,.62,0,1.23,0,1.85a1.94,1.94,0,0,1,0,.34.57.57,0,0,1-.54.52h-7.39a4.78,4.78,0,0,1-.54,0,.51.51,0,0,1-.48-.5,4.16,4.16,0,0,1,0-.61V22a2.42,2.42,0,0,1,0-.47.46.46,0,0,1,.45-.43,4.29,4.29,0,0,1,.62,0Z"/><path class="r" d="M231.68,18.54c-1.17,0-2.33,0-3.49,0-.88,0-1-.09-1-1V15.91a2.58,2.58,0,0,1,0-.48.55.55,0,0,1,.54-.51h7.66c.54,0,.75.2.76.74,0,.73,0,1.46,0,2.19,0,.52-.19.69-.72.7-.82,0-1.64,0-2.46,0Z"/><path class="r" d="M279.48,38.17c.25.17.27.41.35.62.14.38.25.78.38,1.17a1,1,0,0,1-.24,1c-.84,1-1.67,1.94-2.5,2.92l-5.3,6.19c-.11.14-.24.27-.35.39-.17-.08-.13-.21-.13-.32,0-.77,0-1.55,0-2.33a1.44,1.44,0,0,1,.39-1c1.93-2.23,3.84-4.48,5.75-6.72l1.34-1.56C279.26,38.37,279.38,38.27,279.48,38.17Z"/><path class="r" d="M257.9,63.52c0,1,0,2,0,2.91a1,1,0,0,1-.29.67l-2,2.29-4,4.68-.48.52c-.11-.11-.22-.17-.27-.26-.26-.42-.51-.86-.77-1.29a.57.57,0,0,1,.11-.74l2.32-2.7q2.37-2.79,4.76-5.57A1.53,1.53,0,0,1,257.9,63.52Z"/><path class="r" d="M265.42,70.86c.92,0,1.83,0,2.81,0-.09.15-.12.23-.17.3-2,2.34-4,4.67-6,7a1,1,0,0,1-.93.44c-.57,0-1.14,0-1.71,0a2.07,2.07,0,0,1-.37,0c-.06-.26.11-.37.22-.5.85-1,1.71-2,2.57-3L265,71.36C265.1,71.19,265.26,71,265.42,70.86Z"/><path class="r" d="M255.47,77.74a6.9,6.9,0,0,1-2-1,2,2,0,0,1,.18-.3l5.21-6.1c.07-.08.16-.15.24-.23.38.16.74.29,1.09.46s.73.06,1.06.31a1.67,1.67,0,0,1-.15.24Z"/><path class="r" d="M280.34,69.75a6.21,6.21,0,0,1-.56,2.5A9.33,9.33,0,0,1,277.14,76a9.83,9.83,0,0,1-3.78,2c-.1-.23.08-.32.17-.42.82-1,1.66-2,2.49-2.92l3.87-4.53C280,70,280.11,69.79,280.34,69.75Z"/></svg>